<svg xmlns="http://www.w3.org/2000/svg" viewBox="0 0 58.01 78.93"><defs><style>.cls-1{fill:#8b2b26;}.cls-2{fill:#c47f1a;}.cls-3{fill:#2b241e;}.cls-4{fill:#494895;}.cls-5{fill:#ffb850;}.cls-6{fill:#e29b25;}.cls-7{fill:#f6e1c4;}.cls-8{fill:#8b2c26;}.cls-9{fill:#e8431b;}.cls-10{fill:#5353b7;}</style></defs><title>Asset 8</title><g id="Layer_2" data-name="Layer 2"><g id="Layer_1-2" data-name="Layer 1"><path class="cls-1" d="M27.09,2.08h3.84a25.8,25.8,0,0,1,25.8,25.8V77.32a0,0,0,0,1,0,0H1.29a0,0,0,0,1,0,0V27.88a25.8,25.8,0,0,1,25.8-25.8Z"/><path class="cls-2" d="M56.8,77.32v-8.4A15.56,15.56,0,0,0,41.28,53.41H16.73A15.56,15.56,0,0,0,1.21,68.92v8.4Z"/><path class="cls-3" d="M56.79,37.8,47.35,18.11A12.4,12.4,0,0,0,42,12.5L37.17,10a17.47,17.47,0,0,0-16.33,0L16.05,12.5a12.4,12.4,0,0,0-5.39,5.61L1.22,37.8A12.41,12.41,0,0,0,3.31,51.6h0A12.45,12.45,0,0,1,6.61,60v2.1A12.42,12.42,0,0,0,19,74.55H39A12.42,12.42,0,0,0,51.4,62.14V60a12.45,12.45,0,0,1,3.3-8.44h0A12.41,12.41,0,0,0,56.79,37.8Z"/><path class="cls-4" d="M9.52,70.12a12.64,12.64,0,0,0,2.83,2.48H45.66a12.64,12.64,0,0,0,2.83-2.48Z"/><path class="cls-4" d="M20.84,10l-4,2.13H41.21l-4-2.13-.7-.35H21.54Z"/><path class="cls-4" d="M11.17,17.14H46.84a12.22,12.22,0,0,0-1.94-2.47H13.11A12.22,12.22,0,0,0,11.17,17.14Z"/><polygon class="cls-4" points="8.7 22.18 49.31 22.18 48.12 19.71 9.89 19.71 8.7 22.18"/><polygon class="cls-4" points="6.29 27.23 51.72 27.23 50.54 24.75 7.47 24.75 6.29 27.23"/><polygon class="cls-4" points="3.87 32.27 54.14 32.27 52.95 29.79 5.06 29.79 3.87 32.27"/><polygon class="cls-4" points="1.46 37.31 56.55 37.31 55.37 34.83 2.64 34.83 1.46 37.31"/><path class="cls-4" d="M0,42.35H58a11.81,11.81,0,0,0-.42-2.48H.45A11.81,11.81,0,0,0,0,42.35Z"/><path class="cls-4" d="M.74,47.39H57.27a12.34,12.34,0,0,0,.62-2.48H.13A12.32,12.32,0,0,0,.74,47.39Z"/><path class="cls-4" d="M2,50A12.57,12.57,0,0,0,3.31,51.6c.24.27.48.55.7.83H54c.22-.28.46-.56.7-.83A12.57,12.57,0,0,0,56,50Z"/><path class="cls-4" d="M52.47,55H5.54a11.88,11.88,0,0,1,.8,2.47H51.67A11.88,11.88,0,0,1,52.47,55Z"/><path class="cls-4" d="M6.61,60h0v2.1c0,.12,0,.25,0,.38H51.39c0-.13,0-.26,0-.38V60H6.61Z"/><path class="cls-4" d="M7.86,67.56H50.15A12.64,12.64,0,0,0,51,65.08H7A12.64,12.64,0,0,0,7.86,67.56Z"/><path class="cls-2" d="M29,78.93h0A10.59,10.59,0,0,1,18.44,68.36V31.12a3.5,3.5,0,0,1,3.5-3.5H36.07a3.5,3.5,0,0,1,3.5,3.5V68.36A10.59,10.59,0,0,1,29,78.93Z"/><path class="cls-4" d="M39.57,62.29v-3a34.65,34.65,0,0,1-21.13,0v3a37.48,37.48,0,0,0,21.13,0Z"/><path class="cls-4" d="M39.57,67.33v-3a34.85,34.85,0,0,1-21.13,0v3a37.48,37.48,0,0,0,21.13,0Z"/><path class="cls-4" d="M38.67,72.63a10.65,10.65,0,0,0,.86-3.29,34.76,34.76,0,0,1-21,0,10.12,10.12,0,0,0,.86,3.29,37.66,37.66,0,0,0,19.32,0Z"/><path class="cls-5" d="M37.52,75.93a1.31,1.31,0,0,1-.79-.26,1.34,1.34,0,0,1-.28-1.87,9.46,9.46,0,0,0,1.13-2l1.25.47-1.24-.5A8.33,8.33,0,0,0,38,70.36v0c0-.09,0-.2.06-.3l0-.09c0-.1,0-.2,0-.3v-.1a9.59,9.59,0,0,0,.08-1.17V31.12A2.16,2.16,0,0,0,36.07,29H21.94a2.15,2.15,0,0,0-2.16,2.16V68.36a8.51,8.51,0,0,0,0,.86l0,.31,0,.1c0,.1,0,.2,0,.3l0,.09.06.31v0a8,8,0,0,0,.42,1.37v0c0,.11.09.22.14.33a9.18,9.18,0,0,0,1,1.66,1.34,1.34,0,0,1-2.17,1.57,11.77,11.77,0,0,1-1.24-2.15c-.06-.13-.12-.27-.17-.41l0-.05a10.66,10.66,0,0,1-.54-1.77v0c0-.14-.06-.27-.08-.41l0-.12c0-.13,0-.25-.05-.38l0-.13c0-.14,0-.27-.05-.4,0-.39,0-.75,0-1.11V31.12a4.84,4.84,0,0,1,4.84-4.84H36.07a4.84,4.84,0,0,1,4.84,4.84V68.36a11.15,11.15,0,0,1-.1,1.51V70l-.06.38,0,.1-.09.42v0a11.38,11.38,0,0,1-.54,1.78l0,0a11.83,11.83,0,0,1-1.46,2.62A1.32,1.32,0,0,1,37.52,75.93Z"/><path class="cls-6" d="M42.74,29.1c-1.4,12.3-5.1,13.92-9.08,19.17a5.72,5.72,0,0,1-9.28,0c-4-5.25-7.5-7.16-9.08-19.17C14,19.33,21.44,11.23,29,11.23S43.86,19.31,42.74,29.1Z"/><path class="cls-7" d="M18.8,31.12A5.17,5.17,0,0,0,22,32.59a5.2,5.2,0,0,0,3.23-1.47A5.19,5.19,0,0,0,22,29.64,5.15,5.15,0,0,0,18.8,31.12Z"/><path class="cls-3" d="M17.9,30.69a.26.26,0,0,1-.2-.08.3.3,0,0,1,0-.42,6.86,6.86,0,0,1,4.34-2,6.82,6.82,0,0,1,4.33,2,.29.29,0,0,1,0,.42.31.31,0,0,1-.42,0A6.34,6.34,0,0,0,22,28.81a6.28,6.28,0,0,0-3.91,1.8A.3.3,0,0,1,17.9,30.69Z"/><path class="cls-3" d="M21.31,30.84a1.15,1.15,0,0,0,0,.19,1.16,1.16,0,0,0,2.29,0,1.15,1.15,0,0,0,0-.19,1.21,1.21,0,0,0,0-.19,1.16,1.16,0,0,0-2.29,0A1.21,1.21,0,0,0,21.31,30.84Z"/><path class="cls-3" d="M22,32.89a5.37,5.37,0,0,1-3.44-1.57l-.21-.2.21-.21A5.37,5.37,0,0,1,22,29.34a5.37,5.37,0,0,1,3.44,1.57l.21.21-.21.2A5.37,5.37,0,0,1,22,32.89Zm-2.79-1.77A4.71,4.71,0,0,0,22,32.29a4.71,4.71,0,0,0,2.79-1.17A4.65,4.65,0,0,0,22,29.94,4.62,4.62,0,0,0,19.24,31.12Z"/><path class="cls-3" d="M17,32.14a3,3,0,0,1-.42,0,.31.31,0,0,1-.25-.34.3.3,0,0,1,.34-.25A2.19,2.19,0,0,0,18.47,31l.13-.11a.3.3,0,0,1,.42,0,.29.29,0,0,1,0,.42l-.13.11A2.76,2.76,0,0,1,17,32.14Z"/><path class="cls-3" d="M26.71,32.49a.32.32,0,0,1-.18-.06L25,31.25a.29.29,0,0,1,0-.41.28.28,0,0,1,.41-.06L26.89,32a.3.3,0,0,1,.06.42A.32.32,0,0,1,26.71,32.49Z"/><path class="cls-3" d="M16.54,29.52,18.2,27.4a5.25,5.25,0,0,1,5-2,5.56,5.56,0,0,1,1.37.42c.22.1.42.22.61.33l.59.32a.35.35,0,1,1-.34.62h0l-.58-.35a5.33,5.33,0,0,0-.56-.32A4.47,4.47,0,0,0,23.09,26a4.67,4.67,0,0,0-2.51.18,4.81,4.81,0,0,0-2.07,1.47l-1.74,2.06a.15.15,0,1,1-.23-.19Z"/><path class="cls-7" d="M39.21,31.12A5.17,5.17,0,0,1,36,32.59a5.2,5.2,0,0,1-3.23-1.47A5.19,5.19,0,0,1,36,29.64,5.15,5.15,0,0,1,39.21,31.12Z"/><path class="cls-3" d="M36.89,30.77a1.21,1.21,0,0,1,0,.19,1.18,1.18,0,0,1-2.32,0c0-.06,0-.13,0-.19s0-.13,0-.2a1.18,1.18,0,0,1,2.32,0A1.34,1.34,0,0,1,36.89,30.77Z"/><path class="cls-3" d="M31.86,30.69a.28.28,0,0,1-.21-.08.29.29,0,0,1,0-.42,6.82,6.82,0,0,1,4.33-2,6.86,6.86,0,0,1,4.34,2,.31.31,0,0,1,0,.42.32.32,0,0,1-.43,0A6.31,6.31,0,0,0,36,28.81a6.31,6.31,0,0,0-3.91,1.8A.28.28,0,0,1,31.86,30.69Z"/><path class="cls-3" d="M36,32.89a5.4,5.4,0,0,1-3.44-1.57l-.2-.2.2-.21A5.4,5.4,0,0,1,36,29.34a5.37,5.37,0,0,1,3.44,1.57l.21.21-.21.2A5.37,5.37,0,0,1,36,32.89ZM33.2,31.12A4.65,4.65,0,0,0,36,32.29a4.68,4.68,0,0,0,2.79-1.17A4.65,4.65,0,0,0,36,29.94,4.59,4.59,0,0,0,33.2,31.12Z"/><path class="cls-3" d="M41,32.14a2.76,2.76,0,0,1-1.83-.69L39,31.34a.29.29,0,0,1,0-.42.3.3,0,0,1,.42,0l.13.11a2.2,2.2,0,0,0,1.77.52.3.3,0,0,1,.34.25.31.31,0,0,1-.25.34A3,3,0,0,1,41,32.14Z"/><path class="cls-3" d="M31.3,32.49a.32.32,0,0,1-.24-.11.3.3,0,0,1,.06-.42l1.56-1.18a.29.29,0,0,1,.42.06.3.3,0,0,1-.06.41l-1.56,1.18A.3.3,0,0,1,31.3,32.49Z"/><path class="cls-3" d="M41.24,29.71,39.5,27.65a4.81,4.81,0,0,0-2.07-1.47A4.67,4.67,0,0,0,34.92,26a4.47,4.47,0,0,0-1.18.41,5.33,5.33,0,0,0-.56.32l-.58.35a.35.35,0,1,1-.36-.6h0l.59-.32c.19-.11.39-.23.61-.33a5.56,5.56,0,0,1,1.37-.42,5.25,5.25,0,0,1,5,2l1.66,2.12a.15.15,0,0,1-.23.19Z"/><path class="cls-2" d="M32.28,38.63,31,36.77a.7.7,0,0,1-.12-.34l-.31-5.28a1.54,1.54,0,0,0-1.35-1.44,2.29,2.29,0,0,0-.37,0,1.54,1.54,0,0,0-1.35,1.44l-.31,5.28a.7.7,0,0,1-.12.34l-1.31,1.86a.66.66,0,0,0,.13.91.63.63,0,0,0,.41.15h.78c1.77,2,3.91,0,3.91,0h.78a.63.63,0,0,0,.41-.15A.66.66,0,0,0,32.28,38.63Z"/><path class="cls-3" d="M22,8.81a53.84,53.84,0,0,0-9.28,6,3.48,3.48,0,0,0-.62,4.68,11.59,11.59,0,0,1,1.79,3.91l1.41,5.74,1.4-2.12a10.23,10.23,0,0,1,8.55-4.62h7.52a10.24,10.24,0,0,1,8.56,4.62l1.39,2.12,1.42-5.74a11.59,11.59,0,0,1,1.79-3.91,3.46,3.46,0,0,0-.57-4.63A53.27,53.27,0,0,0,36,8.81,15,15,0,0,0,22,8.81Z"/><path class="cls-4" d="M27.77,22.44h2.47V7.13a14.55,14.55,0,0,0-2.47,0Z"/><path class="cls-4" d="M20.42,9.67A22.45,22.45,0,0,1,22.24,17l.43,5.8A10.55,10.55,0,0,1,25,22.45l-.42-5.66a24.66,24.66,0,0,0-2.09-8.22c-.16.08-.33.15-.49.24Z"/><path class="cls-4" d="M19.19,20.32a24.89,24.89,0,0,0-3.13-8c-.65.44-1.28.9-1.9,1.37a22.5,22.5,0,0,1,2.74,7.07l1,4.81a10.17,10.17,0,0,1,2.05-1.65Z"/><path class="cls-4" d="M36,8.81c-.22-.12-.44-.23-.67-.33a24.73,24.73,0,0,0-2.32,8l-.65,5.94h.39a9.5,9.5,0,0,1,1.93.19l.65-5.87a22.29,22.29,0,0,1,2.06-7.2Z"/><path class="cls-4" d="M39.53,25l1-4.25a22.5,22.5,0,0,1,3.13-7.19c-.62-.46-1.26-.91-1.9-1.35a24.66,24.66,0,0,0-3.5,8l-.8,3.37A10.35,10.35,0,0,1,39.53,25Z"/><path class="cls-3" d="M32.49,49.78,30.76,67.5a1.76,1.76,0,0,1-3.5,0L25.53,49.78c-.18-1.92,1.22-1.92,3.14-2.11s3.83.44,3.82,1.44C32.48,49.33,32.51,49.57,32.49,49.78Z"/><path class="cls-8" d="M23.8,43h5.82a3,3,0,0,0-3.52-1Z"/><path class="cls-8" d="M34.21,43H28.39a3,3,0,0,1,3.52-1Z"/><path class="cls-9" d="M24.75,43.06c.55.65,2.21,1.12,4.19,1.12s3.64-.47,4.18-1.12Z"/><path class="cls-6" d="M41.37,35.67l1.18-6a.63.63,0,0,1,.27-.4L45,27.8a1.62,1.62,0,0,1,1.71-.05h0a1.6,1.6,0,0,1,.74,1.84L47.1,30.7a8.79,8.79,0,0,1-2.38,3.92L43.29,36a1.6,1.6,0,0,1-1.43.41h0A.61.61,0,0,1,41.37,35.67Z"/><path class="cls-8" d="M42.48,34.5a.16.16,0,0,1-.13-.08.15.15,0,0,1,.06-.2A5.24,5.24,0,0,0,45.31,31a1.61,1.61,0,0,0,0-.87.75.75,0,0,0-.35-.51.62.62,0,0,0-.47,0,.15.15,0,0,1-.2-.07.16.16,0,0,1,.07-.2,1,1,0,0,1,.72,0,1,1,0,0,1,.52.7,1.86,1.86,0,0,1,0,1,5.47,5.47,0,0,1-3,3.39Z"/><path class="cls-6" d="M16.64,35.67l-1.18-6a.63.63,0,0,0-.27-.4L13,27.8a1.62,1.62,0,0,0-1.71-.05h0a1.6,1.6,0,0,0-.74,1.84l.32,1.11a8.79,8.79,0,0,0,2.38,3.92L14.72,36a1.6,1.6,0,0,0,1.43.41h0A.61.61,0,0,0,16.64,35.67Z"/><path class="cls-8" d="M15.53,34.5h-.07a5.47,5.47,0,0,1-3-3.39,1.77,1.77,0,0,1,0-1,1,1,0,0,1,.51-.7,1,1,0,0,1,.72,0,.16.16,0,0,1,.07.2.15.15,0,0,1-.2.07h0a.68.68,0,0,0-.47,0,.78.78,0,0,0-.35.51,1.61,1.61,0,0,0,0,.87,5.19,5.19,0,0,0,2.89,3.19.15.15,0,0,1,.06.2A.14.14,0,0,1,15.53,34.5Z"/><path class="cls-5" d="M42.71,29.18h0l.34-1.35-.88-1.33a11.2,11.2,0,0,0-9.4-5.08H25.24a11.2,11.2,0,0,0-9.4,5.08L15,27.83l.34,1.35h0l1.39-2.12a9.87,9.87,0,0,1,1.18-1.47,10.39,10.39,0,0,1,2-1.65,10.26,10.26,0,0,1,2.77-1.17l.45-.1.12,0,.52-.09h.06A11.11,11.11,0,0,1,25,22.45h7.78l.57,0h.19l.39,0,.21,0,.43.07.13,0a10,10,0,0,1,2.78,1l.55.31h0c.18.1.35.22.53.34h0a9,9,0,0,1,1,.77,10.06,10.06,0,0,1,1.79,2Z"/><path class="cls-10" d="M32.1,5.47,29.79,3.62C30.67,3.1,32,2.16,32,1.09,32-.54,30.63.14,29,.14s-3-.68-3,1c0,1.07,1.28,2,2.16,2.53L25.91,5.47a2.5,2.5,0,0,0-.21,3.72l.63.63a1.18,1.18,0,0,1,.35.83v3.66a.81.81,0,0,0,0,.16.86.86,0,0,0,0,.16C26.68,15.92,29,17,29,17s2.32-1,2.32-2.33a.86.86,0,0,0,0-.16.78.78,0,0,0,0-.16V10.65a1.17,1.17,0,0,1,.34-.83l.63-.63A2.49,2.49,0,0,0,33,7.42,2.51,2.51,0,0,0,32.1,5.47Z"/></g></g></svg>