<svg xmlns="http://www.w3.org/2000/svg" viewBox="0 0 81.92 81.23"><defs><style>.cls-1{fill:#8b2b26;}.cls-2{fill:#e29b25;}.cls-3{fill:#2b241e;}.cls-4{fill:#f7e2c5;}.cls-5{fill:#8b2c26;}.cls-6{fill:#e8431b;}.cls-7{fill:#f6e1c4;}.cls-8{fill:#b7741a;}</style></defs><title>Asset 4</title><g id="Layer_2" data-name="Layer 2"><g id="Layer_1-2" data-name="Layer 1"><circle class="cls-1" cx="29.06" cy="42.96" r="26.87" transform="translate(-21.86 33.13) rotate(-45)"/><path class="cls-2" d="M26.67,15.34a2.87,2.87,0,0,1,1.49-5.55,2.86,2.86,0,0,1,1.74,1.34,2.82,2.82,0,0,1,.29,2.18,2.86,2.86,0,0,1-2.77,2.13A2.76,2.76,0,0,1,26.67,15.34Zm-.39-4.75A2.3,2.3,0,0,0,25.21,12a2.32,2.32,0,0,0,.23,1.73h0a2.32,2.32,0,0,0,1.39,1.06,2.24,2.24,0,0,0,1.73-.23,2.27,2.27,0,0,0,.83-3.11A2.23,2.23,0,0,0,28,10.37a2.06,2.06,0,0,0-.6-.08A2.28,2.28,0,0,0,26.28,10.59Z"/><path class="cls-3" d="M15.31,10.58h0a30.86,30.86,0,0,0,3.63-8.74L19.32.26A.35.35,0,0,1,20,.2l3.48,7.62-1.36,6.42Z"/><path class="cls-3" d="M7.13,16.41c2.28,0,2.32-1.11,3.63-3a7,7,0,0,1,5.72-3h2.94a8.88,8.88,0,0,1,6.68,3h0a8.88,8.88,0,0,1,2.21,5.87V31.11a3.14,3.14,0,0,0,3.14,3.14h0a7,7,0,0,1,3.95,1.21h0a41,41,0,0,1,18,33.95v7.82a1.61,1.61,0,0,1-1.61,1.6H24.26l.64-.67A10.2,10.2,0,0,1,32.23,75H40.3L24.78,55.25,20.61,74.6l-4.23,4.23h-7l1.31-2.18a4.53,4.53,0,0,1,3.88-2.19A2.52,2.52,0,0,0,17,71.94v-21l-3.36-7.54a10.59,10.59,0,0,1,0-13.14l1.21-1.52a4.54,4.54,0,0,0-3.56-7.36H9.77A3.33,3.33,0,0,1,6.6,19.08l-.89-2.67Z"/><path class="cls-4" d="M26.94,79a.16.16,0,0,0,.11,0l.65-.67a10.16,10.16,0,0,1,3-2.16.14.14,0,0,0,.08-.19.16.16,0,0,0-.2-.08,10.18,10.18,0,0,0-3.13,2.23l-.64.67a.14.14,0,0,0,0,.21A.14.14,0,0,0,26.94,79Z"/><path class="cls-4" d="M12,79a.17.17,0,0,0,.13-.07l1.31-2.18a4,4,0,0,1,.83-1,.15.15,0,0,0-.2-.22,4.42,4.42,0,0,0-.89,1.08l-1.31,2.18a.15.15,0,0,0,.06.2Z"/><path class="cls-3" d="M53.43,77.57h4.73a11.3,11.3,0,0,0,10.66-15L61.53,41.76A8.22,8.22,0,0,1,61.06,39v-.15a8.27,8.27,0,0,1,16.09-2.69l1,2.88a1.94,1.94,0,1,0,3.68-1.26l-1-2.88a12.16,12.16,0,0,0-23.66,3.95V39a12,12,0,0,0,.69,4l7.29,20.76a7.41,7.41,0,0,1-7,9.87H53.43a1.95,1.95,0,1,0,0,3.89Z"/><path class="cls-3" d="M17.32,10.48l1.59-.85a8.64,8.64,0,0,0,4-4.42L24.59.91a.64.64,0,0,1,1.2,0l1.94,5a8.65,8.65,0,0,1-1.95,9.24h0S24.32,11.45,17.32,10.48Z"/><path class="cls-4" d="M22.18,10.92,25,3.43a.24.24,0,0,1,.46,0h0a22.1,22.1,0,0,1,.6,10.06h0A10.87,10.87,0,0,0,22.18,10.92Z"/><path class="cls-4" d="M49.05,65.42a.14.14,0,0,0,.09,0,.15.15,0,0,0,0-.21L38.12,50.58a5.08,5.08,0,0,0-9,1.93,16.32,16.32,0,0,0,.26,8.24l.27.93a.16.16,0,0,0,.19.1.17.17,0,0,0,.1-.19l-.28-.92a16.08,16.08,0,0,1-.25-8.09,4.79,4.79,0,0,1,8.49-1.82l11,14.6A.16.16,0,0,0,49.05,65.42Z"/><path class="cls-2" d="M28.85,29.39,11.57,32S7.05,38.2,13.46,45.46L28.92,33Z"/><path class="cls-4" d="M15.94,22.27A11.14,11.14,0,0,0,25,17.56a.15.15,0,0,0,0-.2.14.14,0,0,0-.2,0,10.85,10.85,0,0,1-10.17,4.5l-1.15-.14a.15.15,0,0,0,0,.29l1.15.14A10.2,10.2,0,0,0,15.94,22.27Z"/><path class="cls-5" d="M10.15,36h.08L29,30.65a.3.3,0,0,0,.2-.37.29.29,0,0,0-.37-.2L10.07,35.46a.29.29,0,0,0-.2.37A.28.28,0,0,0,10.15,36Z"/><path class="cls-5" d="M11.89,43.67a.33.33,0,0,0,.16-.05l17-11.53a.3.3,0,1,0-.34-.49l-17,11.53a.29.29,0,0,0-.08.41A.29.29,0,0,0,11.89,43.67Z"/><path class="cls-5" d="M10.15,40.27a.31.31,0,0,0,.13,0l18.7-9a.29.29,0,0,0,.14-.39.3.3,0,0,0-.4-.14L10,39.7a.3.3,0,0,0-.14.4A.29.29,0,0,0,10.15,40.27Z"/><circle class="cls-6" cx="11.17" cy="39.25" r="1.64"/><path class="cls-6" d="M28.22,34.25a.62.62,0,0,0,1.24,0,.62.62,0,0,0-1.24,0Z"/><path class="cls-6" d="M26.8,35.4a.62.62,0,1,0,1.23,0,.6.6,0,0,0-.62-.6A.61.61,0,0,0,26.8,35.4Z"/><path class="cls-6" d="M25.37,36.56a.62.62,0,1,0,.61-.63A.63.63,0,0,0,25.37,36.56Z"/><path class="cls-6" d="M24,37.71a.62.62,0,1,0,.61-.62A.61.61,0,0,0,24,37.71Z"/><path class="cls-6" d="M22.52,38.87a.62.62,0,1,0,.61-.63A.63.63,0,0,0,22.52,38.87Z"/><path class="cls-6" d="M21.1,40a.6.6,0,0,0,.62.61.62.62,0,0,0,0-1.23A.6.6,0,0,0,21.1,40Z"/><path class="cls-6" d="M19.67,41.18a.62.62,0,1,0,.61-.63A.63.63,0,0,0,19.67,41.18Z"/><path class="cls-6" d="M18.25,42.34a.6.6,0,0,0,.62.6.62.62,0,1,0-.62-.6Z"/><path class="cls-6" d="M16.82,43.49a.62.62,0,0,0,.63.61.62.62,0,0,0,0-1.23A.61.61,0,0,0,16.82,43.49Z"/><path class="cls-6" d="M15.39,44.65A.62.62,0,1,0,16,44,.63.63,0,0,0,15.39,44.65Z"/><path class="cls-6" d="M14,45.8a.61.61,0,0,0,.63.61.6.6,0,0,0,.6-.62.62.62,0,1,0-1.23,0Z"/><path class="cls-2" d="M27.42,15.44a2.86,2.86,0,0,0,2.77-2.13,2.82,2.82,0,0,0-.29-2.18,3,3,0,0,0-.88-1,.3.3,0,0,0-.42.08.29.29,0,0,0,.09.41,2.32,2.32,0,0,1,.7.76,2.27,2.27,0,0,1-.83,3.11,2.24,2.24,0,0,1-1.73.23,2.32,2.32,0,0,1-1.39-1.06,2.28,2.28,0,0,1,.22-2.59.31.31,0,0,0,0-.42.29.29,0,0,0-.42,0A2.87,2.87,0,0,0,24.93,14a2.83,2.83,0,0,0,1.74,1.34A2.76,2.76,0,0,0,27.42,15.44Z"/><path class="cls-6" d="M7.51,16.4l-1.14,2-.66-2h1.8Z"/><path class="cls-7" d="M19.42,14.76a4.7,4.7,0,0,1-2.91,1.32,4.66,4.66,0,0,1-2.9-1.32,4.65,4.65,0,0,1,2.9-1.33A4.69,4.69,0,0,1,19.42,14.76Z"/><path class="cls-5" d="M12.8,14.41a.27.27,0,0,0,.21-.09,5.71,5.71,0,0,1,3.5-1.6,5.68,5.68,0,0,1,3.5,1.6.3.3,0,0,0,.42-.42,6.2,6.2,0,0,0-3.92-1.78,6.2,6.2,0,0,0-3.92,1.78.31.31,0,0,0,0,.42A.3.3,0,0,0,12.8,14.41Z"/><path class="cls-3" d="M16.75,14.51a1.52,1.52,0,0,1-.63,1,1.52,1.52,0,0,1-.63-1,1.55,1.55,0,0,1,.63-1A1.55,1.55,0,0,1,16.75,14.51Z"/><path class="cls-5" d="M18.17,17a.16.16,0,0,1,.12-.14.18.18,0,0,1,.16.05.19.19,0,0,1,.05.27.32.32,0,0,1-.53-.05A.39.39,0,0,1,18,16.6a.85.85,0,0,1,.28-.15l.16,0,.15,0a.73.73,0,0,1,.48.39.61.61,0,0,1,.08.3.45.45,0,0,1-.06.27A1.05,1.05,0,0,1,18,17.8a5.42,5.42,0,0,1-.72-.19.52.52,0,0,1-.15-.07l-.16-.09-.3-.22c-.37-.32-.74-.75-1.13-1.12l-.57-.58a.39.39,0,0,0-.33-.09.35.35,0,0,0-.25.22c0,.16,0,.12,0,.15v.25l0,.41a8.38,8.38,0,0,0,.26,1.63,9.19,9.19,0,0,0,.25-1.63l0-.41v-.25s0-.08,0,0a.26.26,0,0,1-.18.16.27.27,0,0,1-.23-.07l.56.59.56.59a5.8,5.8,0,0,0,.62.58,3,3,0,0,0,.37.25,1.18,1.18,0,0,0,.19.11,1.07,1.07,0,0,0,.22.1,4.29,4.29,0,0,0,.86.2,1.87,1.87,0,0,0,.93-.09,1.31,1.31,0,0,0,.74-.65,1.15,1.15,0,0,0-.85-1.55,1,1,0,0,0-.91.28.68.68,0,0,0-.21.47.7.7,0,0,0,.17.47.65.65,0,0,0,.45.2.46.46,0,0,0,.25-.06.91.91,0,0,0,.17-.17.37.37,0,0,0,0-.25.29.29,0,0,0-.16-.18.26.26,0,0,0-.23,0A.17.17,0,0,0,18.17,17Z"/><path class="cls-5" d="M13.39,15l-.2-.2.2-.21a4.92,4.92,0,0,1,3.12-1.42,4.92,4.92,0,0,1,3.12,1.42l.2.21-.2.2a4.92,4.92,0,0,1-3.12,1.42A4.92,4.92,0,0,1,13.39,15Zm3.12-1.23a4.08,4.08,0,0,0-2.46,1,4.11,4.11,0,0,0,2.46,1,4.14,4.14,0,0,0,2.46-1A4.08,4.08,0,0,0,16.51,13.73Z"/><path class="cls-5" d="M21,15.7l.38,0a.31.31,0,0,0,.25-.34.3.3,0,0,0-.34-.25,2,2,0,0,1-1.57-.46l-.12-.1a.3.3,0,0,0-.39.45l.12.1A2.56,2.56,0,0,0,21,15.7Z"/><path class="cls-5" d="M12.3,16a.3.3,0,0,0,.18-.06l1.4-1.06a.29.29,0,0,0,.06-.41.29.29,0,0,0-.42-.06l-1.4,1.06a.3.3,0,0,0-.06.42A.32.32,0,0,0,12.3,16Z"/><path class="cls-4" d="M24.78,55.4a.14.14,0,0,0,.14-.11l.77-3a4.65,4.65,0,0,0-.44-3.43l-1.36-2.47a.16.16,0,0,0-.21-.06.15.15,0,0,0-.05.2L25,49a4.44,4.44,0,0,1,.42,3.21l-.78,3.06a.15.15,0,0,0,.11.18Z"/><rect class="cls-8" y="78.83" width="60.9" height="2.4" transform="translate(60.9 160.06) rotate(-180)"/></g></g></svg>