<svg xmlns="http://www.w3.org/2000/svg" viewBox="0 0 101.07 136.08"><defs><style>.cls-1{fill:#e29b25;}.cls-2{fill:#9e6212;}.cls-3{fill:#2b241e;}.cls-4{fill:#8b2c26;}.cls-5{fill:#ea481c;}.cls-6{fill:#f7e2c5;}.cls-7{fill:#494895;}</style></defs><title>Asset 1</title><g id="Layer_2" data-name="Layer 2"><g id="Layer_1-2" data-name="Layer 1"><path class="cls-1" d="M11.65,38.84h0a.71.71,0,0,1-.5-.87L20.29,4a.72.72,0,0,1,.88-.5h0a.72.72,0,0,1,.5.87l-9.15,34A.7.7,0,0,1,11.65,38.84Z"/><path class="cls-1" d="M49.33,95A21.73,21.73,0,0,1,43.5,72.85a.88.88,0,0,0,0-.15l8.53-9.41L12.34,39.79,8,50.65a13.9,13.9,0,0,0-1,5.14L.33,66.25A1.66,1.66,0,0,0,0,67.43,1.6,1.6,0,0,0,1.6,68.81l2.33.45-.47,3-.11.08a1.09,1.09,0,0,0-.44.85v.21a1.12,1.12,0,0,0,.32.81l.46.45-.25.38a1.1,1.1,0,0,0,.92,1.7h.48l.45.8a1.11,1.11,0,0,1,.14.54v.64a8.23,8.23,0,0,1-.95,3.62,2,2,0,0,0-.21.9,2.08,2.08,0,0,0,1.45,2,11.8,11.8,0,0,0,2.61,1,19.51,19.51,0,0,0,4.57.56l6.06.06L28,115,52.08,97.66Z"/><path class="cls-2" d="M27.62,49.47l4.49,6.76A11.37,11.37,0,0,1,34,62.5v8.8l9.38-17.4L34,46.17Z"/><path class="cls-2" d="M20.92,55.54h-.33a5.78,5.78,0,0,1-2.73-.68l-3.64-1.92a5.85,5.85,0,0,0-2.72-.67h0A5.8,5.8,0,0,0,8.6,53l-.36.2,1.41,2.4,6.76,2.49A6.91,6.91,0,0,0,20.92,55.54Z"/><path class="cls-3" d="M53.2,62.51l-14-7.79v2.34a27.05,27.05,0,0,0,4.89,15.06Z"/><path class="cls-3" d="M2.85,68.81H5.66L3.22,68a.25.25,0,0,0-.26.07l-.29.34A.24.24,0,0,0,2.85,68.81Z"/><path class="cls-4" d="M3.46,72.28l-.11.08a1.09,1.09,0,0,0-.44.85v.21a1.12,1.12,0,0,0,.32.81l.46.45H10.6L6.36,72.82A6.6,6.6,0,0,0,3.46,72.28Z"/><path class="cls-5" d="M3.69,74.68l-.25.38a1.1,1.1,0,0,0,.92,1.7h.48l6-2.08Z"/><path class="cls-3" d="M20.92,56h-.33a6.29,6.29,0,0,1-2.95-.73L14,53.36a5.43,5.43,0,0,0-5.16.09l-.36.2A.47.47,0,1,1,8,52.83l.36-.21a6.4,6.4,0,0,1,6.07-.1l3.64,1.92a5.37,5.37,0,0,0,2.51.63h.33a.47.47,0,1,1,0,.94Z"/><path class="cls-2" d="M34.52,72.12h0c-.43,1.4-6.61,6.65-7.74,7.58h0a7.49,7.49,0,0,1-3.68,1.63l-13,1.87a7.66,7.66,0,0,1-2.86-.15l-2.8-.69a2,2,0,0,0-.21.9,2.08,2.08,0,0,0,1.45,2,11.8,11.8,0,0,0,2.61,1,19.51,19.51,0,0,0,4.57.56l6.06.06L28,115l.6-21.63a39.11,39.11,0,0,1,2.89-13.7Z"/><path class="cls-3" d="M52.08,64.89,34.31,55.06a10.85,10.85,0,0,0-6.7-2.32h0a10.85,10.85,0,0,1-4.65-1L10,45.59,22.34.11S64.36-2,97.8,12.45c1,.43,5.7,2.85,1.66,5.93Z"/><path class="cls-6" d="M52.43,65.26l-16-7.75h0a5.14,5.14,0,0,1,7-2.2l12.48,6.47Z"/><path class="cls-1" d="M33.33,72.3l3.49-9.63a1.08,1.08,0,0,1,.54-.59l3.92-1.83a2.67,2.67,0,0,1,2.83.34h0a2.68,2.68,0,0,1,.76,3.23l-.81,1.74a14.78,14.78,0,0,1-4.93,5.87l-2.7,1.9a2.7,2.7,0,0,1-2.46.32h0A1.06,1.06,0,0,1,33.33,72.3Z"/><path class="cls-2" d="M35.58,70.65l-.15-.45C39.08,69,40.5,66.84,41,65.65a2.69,2.69,0,0,0,.23-1.44,1.22,1.22,0,0,0-.46-.92,1.08,1.08,0,0,0-.78-.1l-.14-.45a1.53,1.53,0,0,1,1.18.15,1.67,1.67,0,0,1,.67,1.27,3.15,3.15,0,0,1-.27,1.69C40.9,67.1,39.4,69.39,35.58,70.65Z"/><path class="cls-7" d="M33.47,55.37,8.89,46.91l2-11.68L30,44.92a6.66,6.66,0,0,1,4.12,8.45Z"/><polygon class="cls-7" points="16.74 20.8 70.55 46.17 75.78 41.14 18.54 14.15 16.74 20.8"/><polygon class="cls-7" points="50.15 48.4 71.33 46 76.08 41.34 49.69 44.34 50.15 48.4"/><path class="cls-1" d="M52.08,97.66h0a43.29,43.29,0,0,1,18.38,33.11h0a5,5,0,0,1-5,5.31H35.49A10.08,10.08,0,0,1,25.41,126h0a10.12,10.12,0,0,1,.33-2.57L28,115Z"/><path class="cls-2" d="M55.55,108.79,55.23,106,36.65,116.8,25.86,123l-.12.45a10.12,10.12,0,0,0-.33,2.57h0a10.08,10.08,0,0,0,7.85,9.83Z"/><rect class="cls-6" x="20.32" y="14.79" width="1.19" height="8.54" transform="translate(10.12 -7.1) rotate(25.24)"/><rect class="cls-6" x="22.56" y="15.84" width="1.19" height="8.54" transform="translate(10.79 -7.95) rotate(25.24)"/><rect class="cls-6" x="24.79" y="16.89" width="1.19" height="8.54" transform="translate(11.45 -8.81) rotate(25.24)"/><rect class="cls-6" x="27.03" y="17.95" width="1.19" height="8.54" transform="translate(12.11 -9.66) rotate(25.24)"/><rect class="cls-6" x="37.48" y="22.87" width="1.19" height="8.54" transform="translate(15.21 -13.64) rotate(25.24)"/><rect class="cls-6" x="39.71" y="23.93" width="1.19" height="8.54" transform="translate(15.87 -14.49) rotate(25.24)"/><rect class="cls-6" x="41.95" y="24.98" width="1.19" height="8.54" transform="translate(16.53 -15.35) rotate(25.24)"/><rect class="cls-6" x="44.19" y="26.04" width="1.19" height="8.54" transform="translate(17.2 -16.2) rotate(25.24)"/><rect class="cls-6" x="54.63" y="30.96" width="1.19" height="8.54" transform="translate(20.3 -20.19) rotate(25.24)"/><rect class="cls-6" x="56.87" y="32.02" width="1.19" height="8.54" transform="translate(20.96 -21.04) rotate(25.24)"/><rect class="cls-6" x="59.11" y="33.07" width="1.19" height="8.54" transform="translate(21.62 -21.89) rotate(25.24)"/><rect class="cls-6" x="61.34" y="34.12" width="1.19" height="8.54" transform="translate(22.28 -22.74) rotate(25.24)"/><rect class="cls-6" x="51.13" y="43.85" width="0.65" height="4.65" transform="translate(-4.71 5.86) rotate(-6.24)"/><rect class="cls-6" x="52.47" y="43.7" width="0.65" height="4.65" transform="translate(-4.69 6.01) rotate(-6.24)"/><rect class="cls-6" x="53.8" y="43.55" width="0.65" height="4.65" transform="translate(-4.66 6.15) rotate(-6.24)"/><rect class="cls-6" x="55.14" y="43.41" width="0.65" height="4.65" transform="translate(-4.64 6.3) rotate(-6.24)"/><rect class="cls-6" x="61.89" y="42.67" width="0.65" height="4.65" transform="translate(-4.52 7.02) rotate(-6.24)"/><rect class="cls-6" x="63.22" y="42.52" width="0.65" height="4.65" transform="translate(-4.5 7.17) rotate(-6.24)"/><rect class="cls-6" x="64.56" y="42.38" width="0.65" height="4.65" transform="translate(-4.47 7.31) rotate(-6.24)"/><rect class="cls-6" x="65.9" y="42.23" width="0.65" height="4.65" transform="translate(-4.45 7.47) rotate(-6.25)"/><path class="cls-7" d="M25.41,126h0a10,10,0,0,0,3,7.17l22.43-22.43a6.69,6.69,0,0,1,4.71-1.95h0a6.66,6.66,0,0,1,4.74,2L68,118.6a43.22,43.22,0,0,0-9.43-15.33,6.67,6.67,0,0,0-4.83-2.07h0a6.74,6.74,0,0,0-4.13,1.43l-10.89,8.61A17.38,17.38,0,0,1,28,115h0l-2.21,8.44A10.12,10.12,0,0,0,25.41,126Z"/><path class="cls-4" d="M35.5,71.74a1.32,1.32,0,1,1-1.32-1.32A1.32,1.32,0,0,1,35.5,71.74Z"/><path class="cls-5" d="M35.25,71.27a.6.6,0,1,1-.59-.59A.59.59,0,0,1,35.25,71.27Z"/><path class="cls-6" d="M16.55,58.17l-6.9-2.53A5.31,5.31,0,0,0,9.59,59a4.85,4.85,0,0,0,4.3-1.66Z"/><path class="cls-3" d="M8,55.37a2,2,0,0,0,1.62.06h.05l.07,0c.58.17,1.14.37,1.71.58s1.12.42,1.68.66,1.11.45,1.66.7,1.1.49,1.64.75c-.59-.15-1.16-.32-1.74-.49s-1.15-.36-1.72-.55-1.13-.39-1.7-.58-1.13-.43-1.68-.67H9.7A2.2,2.2,0,0,1,8,55.37Z"/><path class="cls-3" d="M8.89,59.57l.56-.72h0l.17,0h0a5.49,5.49,0,0,0,1.15,0,4.89,4.89,0,0,0,1.14-.22,3.54,3.54,0,0,0,1-.51,3.5,3.5,0,0,0,.82-.81h0a.15.15,0,0,1,.21,0,.15.15,0,0,1,0,.2,3.58,3.58,0,0,1-.86.92,4,4,0,0,1-1.1.61,5.77,5.77,0,0,1-1.23.28,6,6,0,0,1-1.27,0h0l.19,0Z"/><path class="cls-3" d="M10.91,56.9c0,.7-.29,1.27-.64,1.27s-.65-.57-.65-1.27.29-1.26.65-1.26S10.91,56.21,10.91,56.9Z"/></g></g></svg>