<svg xmlns="http://www.w3.org/2000/svg" viewBox="0 0 81.1 105.83"><defs><style>.cls-1{isolation:isolate;}.cls-2{fill:#a86d16;}.cls-3{fill:#e29b25;}.cls-4{fill:#a3671f;}.cls-4,.cls-5{opacity:0.5;mix-blend-mode:multiply;}.cls-5{fill:#7f4b17;}.cls-6{fill:#ffb03e;}.cls-7{fill:#2b241e;}</style></defs><title>Asset 7</title><g class="cls-1"><g id="Layer_2" data-name="Layer 2"><g id="Layer_1-2" data-name="Layer 1"><rect class="cls-2" width="81.1" height="105.83"/><rect class="cls-3" x="3.51" y="4.58" width="74.08" height="96.67"/><path class="cls-4" d="M73.7,97.55H7.4V8.91H73.7ZM8,97H73.11V9.51H8Z"/><polygon class="cls-5" points="77.59 101.25 81.1 105.83 0 105.83 3.51 101.25 77.59 101.25"/><polygon class="cls-6" points="0 0 3.51 4.58 77.59 4.58 81.1 0 0 0"/><polygon class="cls-4" points="81.1 0 77.59 4.58 77.59 101.25 81.1 105.83 81.1 0"/><path class="cls-7" d="M64.52,50.47c-.46,0-.91.07-1.37.08a1.36,1.36,0,0,0-.29-.84l.14-.18c.34-.46.67-.94,1-1.44a12.79,12.79,0,0,0,.82-1.56c.11-.28.21-.56.3-.86a3.62,3.62,0,0,0,.14-.94,4.64,4.64,0,0,0-.49-2.34,3.45,3.45,0,0,0-.8-1,3.38,3.38,0,0,0-1.14-.6,3.86,3.86,0,0,0-2.48.15,3.19,3.19,0,0,0-1,.74,3.3,3.3,0,0,0-.69,1.05,4.4,4.4,0,0,0-.31,1.17,5.65,5.65,0,0,0,0,.59v.29l0,.31a6,6,0,0,0,.3,1.14,8.71,8.71,0,0,0,.46,1,15.79,15.79,0,0,0,1.18,1.89l.41.55a1.41,1.41,0,0,0-.28.84L59,50.47a20.32,20.32,0,0,1-2.77-.4v1.35A20.29,20.29,0,0,1,59,51c.47,0,1-.06,1.42-.08a1.44,1.44,0,0,0,1,1l-.94,8.55h2.64l-1-8.55a1.39,1.39,0,0,0,1-1l1.42.08a20.32,20.32,0,0,1,2.77.4V50.07A17.61,17.61,0,0,1,64.52,50.47ZM59.7,47A6.14,6.14,0,0,1,59.13,45a1.85,1.85,0,0,1,0-.23,2.09,2.09,0,0,1,0-.25,3.87,3.87,0,0,1,0-.49,3.51,3.51,0,0,1,.28-.92,2.42,2.42,0,0,1,1.27-1.23,2.55,2.55,0,0,1,.88-.17,3,3,0,0,1,.9.1,2.46,2.46,0,0,1,1.38,1.06,3.78,3.78,0,0,1,.5,1.85,4.46,4.46,0,0,1-.3,1.52,11.4,11.4,0,0,1-.68,1.52c-.26.49-.55,1-.86,1.45a1,1,0,0,1-.08.14,1.37,1.37,0,0,0-.72-.2,1.39,1.39,0,0,0-.71.19A17.67,17.67,0,0,1,59.7,47Z"/><path class="cls-7" d="M38.8,59a.45.45,0,0,0,.32-.14s3.42-3.44,7.51-3.44,7.47,3.41,7.51,3.44a.43.43,0,0,0,.62,0,.44.44,0,0,0,0-.63c-.15-.15-3.69-3.7-8.14-3.7s-8,3.55-8.14,3.7a.45.45,0,0,0,0,.63A.48.48,0,0,0,38.8,59Z"/><path class="cls-7" d="M55.78,61.64l-2.93-2.22a10,10,0,0,0-6.22-2.71c-3.45,0-6.19,2.67-6.43,2.91l-.23.2a4.34,4.34,0,0,1-3.47,1,.44.44,0,1,0-.13.87,4.9,4.9,0,0,0,.77.06,5.23,5.23,0,0,0,3.35-1.22,9.86,9.86,0,0,0,6.14,2.64,7.42,7.42,0,0,0,2.43-.42l-.18.18-1.21,1.22a14.24,14.24,0,0,1-1.2,1.15,6,6,0,0,1-.65.47l-.34.21-.34.15a10.22,10.22,0,0,1-1.56.41,3.2,3.2,0,0,1-1.51-.06A1.86,1.86,0,0,1,41,65.63a1.21,1.21,0,0,1-.13-.65,1.7,1.7,0,0,1,.19-.69,1.74,1.74,0,0,1,1.11-.87,1.71,1.71,0,0,1,.35-.06,2.39,2.39,0,0,1,.36,0,1.57,1.57,0,0,1,.63.35A.92.92,0,0,1,43.62,65a.76.76,0,0,1-1.23.07.43.43,0,0,1,.12-.62.41.41,0,0,1,.37-.09.33.33,0,0,1,.24.29.35.35,0,0,0-.22-.36.55.55,0,0,0-.45,0,.65.65,0,0,0-.31.36.59.59,0,0,0,.06.5,1.1,1.1,0,0,0,.34.34,1.15,1.15,0,0,0,.5.12,1.25,1.25,0,0,0,.88-.42,1.36,1.36,0,0,0,.33-.93,1.42,1.42,0,0,0-.41-.92A1.94,1.94,0,0,0,42,62.85a2.29,2.29,0,0,0-1.68,3.09,2.49,2.49,0,0,0,1.47,1.29,3.83,3.83,0,0,0,1.89.17A9.8,9.8,0,0,0,45.46,67a3,3,0,0,0,.45-.2l.4-.22a7.67,7.67,0,0,0,.74-.53,11.57,11.57,0,0,0,1.29-1.22l1.19-1.24.64-.66,0,.66A26.65,26.65,0,0,0,50.58,67,26.68,26.68,0,0,0,51,63.57c0-.29,0-.58,0-.86v-.54a.53.53,0,0,0,0-.25s0,0,0-.06a11.44,11.44,0,0,0,1.84-1.36l2.43,1.85a.46.46,0,0,0,.27.09.44.44,0,0,0,.36-.18A.46.46,0,0,0,55.78,61.64Zm-9.15.66A9.08,9.08,0,0,1,41.15,60,9.46,9.46,0,0,1,46,57.63a2.09,2.09,0,0,0-.81,1.54,2.18,2.18,0,0,0,0,.25,2.27,2.27,0,0,0,4.53.26c0-.09,0-.17,0-.26s0-.16,0-.25a2.47,2.47,0,0,0-.29-.94A10.78,10.78,0,0,1,52.1,60,9,9,0,0,1,46.63,62.3Z"/><path class="cls-7" d="M29.48,48.58h-.71a4,4,0,0,0-2.52-2.46L26.56,45h0l.18-.65h.54a.31.31,0,0,0,0-.61H18.2a.31.31,0,0,0,0,.61h.54l.18.65h0l.3,1.15a4,4,0,0,0-2.51,2.46H16a1,1,0,1,0,0,2h.33c0,.16,0,.32,0,.49,0,2.92,2.64,6.13,4.53,8.06a1,1,0,0,0,.66.27H24a.91.91,0,0,0,.65-.27c1.9-1.93,4.54-5.14,4.54-8.06,0-.17,0-.33,0-.49h.34a1,1,0,0,0,0-2ZM16,50.19A.61.61,0,0,1,16,49h.58a6.88,6.88,0,0,0-.22,1.21Zm13.48,0h-.36A7.94,7.94,0,0,0,28.9,49h.58a.61.61,0,0,1,0,1.21Z"/><path class="cls-7" d="M66.17,67.06h-.08c-.43,0-.46-.27-.73-.66a1.6,1.6,0,0,0-1-.65h0a7,7,0,0,1-.82-2l-.08-.35a.08.08,0,0,0-.15,0l-.58,1.28a1,1,0,0,1-.07-.15l-.39-1a.15.15,0,0,0-.27,0l-.44,1.13a2,2,0,0,0,.25,1.86,2,2,0,0,0-.38,1.17v2.65a.7.7,0,0,1-.71.7h0a1.61,1.61,0,0,0-.89.28h0A9.22,9.22,0,0,0,55.74,79v1H54.68a1.67,1.67,0,0,1-1.58-2.23l1.64-4.67a2.61,2.61,0,0,0,.16-.91v0a2.74,2.74,0,0,0-5.33-.89l-.22.65a.44.44,0,1,0,.83.29l.22-.65a1.86,1.86,0,0,1,3.62.6v0a1.87,1.87,0,0,1-.1.62l-1.65,4.67a2.55,2.55,0,0,0,2.41,3.39h1.07a.36.36,0,0,0,.35.29h6.21L62.17,81a2.29,2.29,0,0,0-1.65-.71H58.7l3.5-4.45.94,4.35,1,1h1.59l-.3-.49a1,1,0,0,0-.87-.5.57.57,0,0,1-.57-.56V74.84l.76-1.7a2.4,2.4,0,0,0,0-3l-.27-.34a1,1,0,0,1-.13-1.07,1,1,0,0,1,.93-.59h.35a.75.75,0,0,0,.71-.51l.2-.61Z"/><path class="cls-7" d="M36.46,67.52l-.25-.25a1.43,1.43,0,0,0-1-.41h-.52a.9.9,0,0,1-.59-.22c-.15-.15-.36,0-.58,0h-.26l-.07,0a1.43,1.43,0,0,0-.65-.06,1.46,1.46,0,0,0-.82-.27,1.57,1.57,0,0,0,.07.59,1.36,1.36,0,0,0-.37.45l-.18.33A2,2,0,0,0,31,68.87a2,2,0,0,1-1.37.54h0a1,1,0,0,1-.88-.59l-.67-1.58a3.25,3.25,0,0,0-1.72-1.72l-.63-.29-.16-.07h0a1.13,1.13,0,0,0-.32-.05,1.14,1.14,0,0,1-.33-.06L24.85,65,25,65,24.86,65H25l-.13,0,.13,0h-.13l.11-.06-.12,0,.1-.08-.12.06.08-.11-.1.09.06-.12-.1.09.05-.12-.1.08.06-.12-.11.07.07-.11-.12.06.08-.11-.12.06.09-.1-.13,0,.09-.09-.13,0,.11-.08-.13,0,.11-.07-.13,0,.11-.07-.13,0,.12-.07-.13,0,.11-.07-.13,0,.11-.07-.13,0,.12-.07-.13,0,.11-.07-.13,0,.11-.07L24.3,64l.06-.17-.18,0,0-.18H24v-.19l-.18,0,0-.18-.17.05-.06-.17-.16.08-.09-.16-.14.11-.11-.15-.13.13-.12-.13-.09.14-.14-.11-.07.16-.15-.09-.05.16-.16-.07,0,.17-.17,0v.17l-.17,0v.17h-.17l0,.17-.17,0,.09.11h-.15l.09.12h-.15l.09.12h-.15l.08.12h-.14l.08.12h-.14l.08.12h-.14l.08.11h-.14l.08.12-.12,0,.1.08-.13,0,.1.09-.12,0,.1.09L21,64.83l.09.1L21,64.87,21,65l-.12-.07L21,65l-.12-.08L21,65,20.86,65l.09.1L20.83,65l.1.08-.12,0,.11.06h-.13l.13,0-.13,0h.13l-.12,0,.13,0-.11.07.12,0-.09.1.06,0a1.51,1.51,0,0,1-.92.32,1.49,1.49,0,0,0-1.15.54L17,68.38a1.33,1.33,0,0,0-.31.86v0l-.17.25a4.75,4.75,0,0,0-.31.59,4.83,4.83,0,0,0-.22.64s0,.11,0,.16V71l0,.09c0,.11,0,.21-.05.32l0,.17,0,.15a3,3,0,0,1-.07.32,4.09,4.09,0,0,1-.55,1.17l-.21.31a1.3,1.3,0,0,0-.86.29,1.32,1.32,0,0,0-.32.9,1.33,1.33,0,0,0,.91-.29,1.29,1.29,0,0,0,.32-.89l.21-.28a4.73,4.73,0,0,0,.35-.56,4.26,4.26,0,0,0,.26-.62,1.68,1.68,0,0,0,.09-.32.94.94,0,0,0,0-.16l0-.16.06-.32,0-.08,0-.08s0-.1,0-.15a3.13,3.13,0,0,1,.24-.6,3.76,3.76,0,0,1,.32-.55l0,0a1.28,1.28,0,0,0,.33.56.7.7,0,0,0-.06.19l-.95,4.89,1.53,4.4-.18.59h.35l.05.88h1.35l-.91-1-1.06-4.2.11-.38A4.5,4.5,0,0,1,18,74.11a4.41,4.41,0,0,0,.58-1l.47-1.18-.64,3.34L20,79.66l-.18.59h.35l.05.88h1.35l-.91-1-.88-3.51a2.59,2.59,0,0,1,0-1.38,2.78,2.78,0,0,1,.43-.86l.34-.44a2.53,2.53,0,0,0,.35-.62l.6-1.47h2l.14,0a.6.6,0,0,0,.28-.13l.16-.13a.8.8,0,0,1,.22-.12l.15,0v4.33l.87,3.07v.74l.53.31-.25.79h2.54l-.79-1.23L26.53,76l.22-1.75a2.43,2.43,0,0,1,.29-.91L28,71.62a.71.71,0,0,0,.09-.28h2.17a2.48,2.48,0,0,0,1.39-.43,2.72,2.72,0,0,0,.38-.31l.71-.71,0-.05a.2.2,0,0,0,0-.08.36.36,0,0,0,0-.1.33.33,0,0,1,.1-.25h0a.22.22,0,0,1,.13-.08h.07a2.82,2.82,0,0,0,.71-.09l.2,0,.29-.11L35,68.8l.14,0h.81a.16.16,0,0,0,.15-.23v0a.24.24,0,0,1,0-.08h0a0,0,0,0,0,0,0,.16.16,0,0,1,.16-.13.16.16,0,0,0,.15-.09l.12-.25A.58.58,0,0,0,36.46,67.52Zm-9.4,12.34-.23.7-.74-1.14L25.3,76l.28-2.24.08-.15v2.12l.87,3.07v.74Z"/><path class="cls-7" d="M49,52.45l2.31-2.24,2,2a.42.42,0,0,0,.59,0,.42.42,0,0,0,0-.6L51.26,49,49,51.28,46.63,49l-2.31,2.24L42,49l-2.32,2.24L37.38,49l-2.61,2.52a.42.42,0,0,0,.59.61l2-2,2.31,2.24L42,50.21l2.31,2.24,2.31-2.24Z"/><path class="cls-7" d="M49,48.87l2.31-2.24,2,2a.42.42,0,0,0,.59,0,.42.42,0,0,0,0-.6l-2.6-2.52L49,47.7l-2.32-2.24L44.32,47.7,42,45.46,39.69,47.7l-2.31-2.24L34.77,48a.42.42,0,0,0,.59.61l2-2,2.31,2.24L42,46.63l2.31,2.24,2.31-2.24Z"/><path class="cls-7" d="M49,45.29l2.31-2.24,2,2a.42.42,0,0,0,.59,0,.42.42,0,0,0,0-.6l-2.6-2.52L49,44.12l-2.32-2.24-2.31,2.24L42,41.88l-2.32,2.24-2.31-2.23L34.77,44.4a.42.42,0,1,0,.59.61l2-2,2.31,2.24L42,43.05l2.31,2.24,2.31-2.24Z"/><path class="cls-7" d="M31.25,38.22a.42.42,0,0,0,.42-.42V30.9a3,3,0,1,0-3.37-3.37h-.7a.42.42,0,1,0,0,.84h1.51V28a2.14,2.14,0,1,1,2.14,2.14h-.42V37.8A.42.42,0,0,0,31.25,38.22Z"/><path class="cls-7" d="M19.21,38.2a.42.42,0,0,0,.42-.42V29a2.42,2.42,0,1,1,4.84,0v8.75a.42.42,0,0,0,.84,0V29a3.26,3.26,0,1,0-6.52,0v8.75A.41.41,0,0,0,19.21,38.2Z"/><polygon class="cls-7" points="36.05 81.13 40.27 81.13 38.16 77.48 36.05 73.83 33.95 77.48 31.84 81.13 36.05 81.13"/><polygon class="cls-7" points="38.57 76.37 38.85 75.89 41.87 70.64 44.9 75.89 47.93 81.13 41.87 81.13 41.31 81.13 39.11 77.31 38.57 76.37"/><path class="cls-7" d="M63.07,29.42l-.7-1.62a.7.7,0,0,1,.14-.75,1.47,1.47,0,0,0,.32-1.23,1.4,1.4,0,0,0-1.08-1.09A1.42,1.42,0,0,0,60,26.12l-.26,2.53a9.36,9.36,0,0,1-1.63,4.4l-2.91,4.2.86.42,2.23-3h1.3A3.75,3.75,0,0,0,62,33.82,3.65,3.65,0,0,0,63.37,31v-.1A3.67,3.67,0,0,0,63.07,29.42Z"/><path class="cls-7" d="M63.92,26.51a2.52,2.52,0,0,0-2-.05l-.13-1.2A2.49,2.49,0,0,1,63.92,26.51Z"/><rect class="cls-7" x="59.3" y="34.06" width="0.64" height="4.16"/><polygon class="cls-7" points="62.58 38.22 60.74 34.13 60.16 34.4 61.88 38.22 62.58 38.22"/><path class="cls-7" d="M42.89,30.23h0a1,1,0,0,0-.86.49l-4.55,6.63h3l1.94-2.81.88,1.54h1.21l2.72-4.33a5.52,5.52,0,0,0,.65-2.61V27.26h.64a2.15,2.15,0,0,1,1.34.46l1.28,1-.4-1.44a2.93,2.93,0,0,0-1.61-1.88L49,25.37h0A1.42,1.42,0,0,0,48,25H46.75a1.42,1.42,0,0,0-1.28.81l-1.94,4.07A.72.72,0,0,1,42.89,30.23Z"/><rect class="cls-7" x="43.08" y="35.01" width="0.46" height="3.22"/><rect class="cls-7" x="44.13" y="35.01" width="0.46" height="3.22"/><rect class="cls-7" x="44.13" y="36.38" width="0.46" height="3.22" transform="translate(82.36 -6.37) rotate(90)"/></g></g></g></svg>