<svg xmlns="http://www.w3.org/2000/svg" viewBox="0 0 123.8 84.32"><defs><style>.cls-1{fill:#2b241e;}.cls-2{fill:#8b2c26;}.cls-3{fill:#e8431b;}.cls-4{fill:#494895;}.cls-5{fill:#5757ad;}.cls-6{fill:#e29b25;}.cls-7{fill:#f4aa40;}.cls-8{fill:#ffb850;}.cls-9{fill:#cc861f;}.cls-10{fill:#7f4d0b;}.cls-11{fill:#935b16;}.cls-12{fill:#7c4b11;}.cls-13{fill:#af701c;}.cls-14{fill:#b7741a;}.cls-15{fill:#e59328;}.cls-16{fill:#ffd092;}</style></defs><title>Asset 5</title><g id="Layer_2" data-name="Layer 2"><g id="Layer_1-2" data-name="Layer 1"><polygon class="cls-1" points="61.9 84.32 101.87 15.09 21.93 15.09 61.9 84.32"/><path class="cls-2" d="M51.44,45.87l4.92,0,0,8.42a19.94,19.94,0,0,1-4.86,13.14h0Z"/><path class="cls-3" d="M54.39,45.86h-3l.09,21.54.31-1.21A71.22,71.22,0,0,0,54,52.35Z"/><path class="cls-2" d="M48.72,46.89l4.85.79L52.22,56a20,20,0,0,1-7,12.15h0Z"/><path class="cls-3" d="M51.64,47.36l-2.92-.47L45.26,68.14l.5-1.13a71.6,71.6,0,0,0,4.43-13.3Z"/><path class="cls-2" d="M43.9,46.4l4.86.79L47.4,55.51a20,20,0,0,1-7,12.15h0Z"/><path class="cls-3" d="M46.82,46.88,43.9,46.4,40.44,67.66l.5-1.13a71.11,71.11,0,0,0,4.43-13.3Z"/><path class="cls-2" d="M40.72,46.39l4.67,1.52-2.61,8a19.93,19.93,0,0,1-8.73,11h0Z"/><path class="cls-3" d="M43.52,47.3l-2.8-.91L34.05,66.87l.67-1a71.65,71.65,0,0,0,6.41-12.47Z"/><path class="cls-2" d="M36.72,45.75l4.54,1.86L38.08,55.4a19.94,19.94,0,0,1-9.52,10.28h0Z"/><path class="cls-3" d="M39.45,46.87l-2.73-1.12L28.56,65.68l.75-1a72.09,72.09,0,0,0,7.31-12Z"/><path class="cls-2" d="M33.33,44.5l4.3,2.4-4.1,7.35a19.93,19.93,0,0,1-10.68,9.07h0Z"/><path class="cls-3" d="M35.91,45.94,33.33,44.5,22.85,63.32l.86-.89a72.07,72.07,0,0,0,8.69-11Z"/><path class="cls-2" d="M30.64,43.62l3.7,3.23L28.81,53.2a20,20,0,0,1-12.33,6.65h0Z"/><path class="cls-3" d="M32.86,45.56l-2.22-1.94L16.48,59.85l1-.69a71.78,71.78,0,0,0,10.78-9Z"/><path class="cls-2" d="M27.84,42.63l2.87,4-6.83,4.93a20,20,0,0,1-13.51,3.69h0Z"/><path class="cls-3" d="M29.57,45l-1.73-2.4L10.37,55.24l1.16-.45A71.64,71.64,0,0,0,24.06,48.5Z"/><path class="cls-2" d="M25.68,41.69l1.47,4.69-8,2.52a20,20,0,0,1-14-.78h0Z"/><path class="cls-3" d="M26.56,44.51l-.88-2.82L5.12,48.12l1.24,0a72.27,72.27,0,0,0,13.88-2Z"/><path class="cls-2" d="M23.73,39.73l.48,4.9-8.38.81A20,20,0,0,1,2.29,41.82h0Z"/><path class="cls-3" d="M24,42.67l-.29-2.94L2.29,41.82l1.23.2a72,72,0,0,0,14,.88Z"/><path class="cls-2" d="M21.49,36.39l-.35,4.9-8.4-.58A20,20,0,0,1,0,34.89H0Z"/><path class="cls-3" d="M21.28,39.33l.21-2.94L0,34.89l1.17.4a71.9,71.9,0,0,0,13.66,3.19Z"/><path class="cls-2" d="M22.25,34.32,20.71,39l-8-2.64A19.91,19.91,0,0,1,1.8,27.57h0Z"/><path class="cls-3" d="M21.32,37.12l.93-2.8L1.8,27.57l1,.68A71.55,71.55,0,0,0,15.28,34.7Z"/><path class="cls-4" d="M50.65,38.64l4.92,0,0,8.43a20,20,0,0,1-4.86,13.13h0Z"/><path class="cls-5" d="M53.61,38.62l-3,0,.1,21.53.31-1.2a72,72,0,0,0,2.17-13.85Z"/><path class="cls-4" d="M47.38,39l4.91.33-.57,8.4a19.94,19.94,0,0,1-5.78,12.76h0Z"/><path class="cls-5" d="M50.33,39.21,47.38,39,45.94,60.51l.4-1.18a71.81,71.81,0,0,0,3.15-13.66Z"/><path class="cls-4" d="M43.5,38.09l4.89.52L47.51,47a19.94,19.94,0,0,1-6.27,12.53h0Z"/><path class="cls-5" d="M46.44,38.4l-2.94-.31L41.24,59.51l.44-1.16a71.27,71.27,0,0,0,3.68-13.53Z"/><path class="cls-4" d="M41,36.84l4.81,1-1.76,8.24a20,20,0,0,1-7.55,11.8h0Z"/><path class="cls-5" d="M43.93,37.46,41,36.84l-4.5,21.07.56-1.11a72.79,72.79,0,0,0,5.08-13.07Z"/><path class="cls-4" d="M38,35.1l4.7,1.43-2.44,8.06a20,20,0,0,1-8.51,11.13h0Z"/><path class="cls-5" d="M40.84,36,38,35.1,31.77,55.72l.65-1.06a71.29,71.29,0,0,0,6.15-12.6Z"/><path class="cls-4" d="M36.39,34.87l4.35,2.29L36.8,44.61a19.94,19.94,0,0,1-10.47,9.3h0Z"/><path class="cls-5" d="M39,36.25l-2.61-1.38-10.06,19,.84-.91a71.9,71.9,0,0,0,8.44-11.2Z"/><path class="cls-4" d="M34.24,35.18,38,38.32,32.63,44.8a20,20,0,0,1-12.17,6.94h0Z"/><path class="cls-5" d="M36.51,37.07l-2.27-1.89L20.46,51.74l1-.72A71.81,71.81,0,0,0,32,41.8Z"/><path class="cls-4" d="M32,35.82l2.91,4-6.77,5a19.94,19.94,0,0,1-13.47,3.84h0Z"/><path class="cls-5" d="M33.75,38.19,32,35.82,14.67,48.61l1.15-.46a72,72,0,0,0,12.46-6.42Z"/><path class="cls-4" d="M30.49,35.13l2.18,4.41-7.56,3.72a20,20,0,0,1-13.94,1.39h0Z"/><path class="cls-5" d="M31.8,37.78l-1.31-2.65L11.17,44.65l1.22-.25a72.06,72.06,0,0,0,13.4-4.11Z"/><path class="cls-4" d="M29.28,34.76l.63,4.88-8.35,1.08a20,20,0,0,1-13.64-3.2h0Z"/><path class="cls-5" d="M29.66,37.69l-.38-2.93L7.92,37.52l1.23.16a72.1,72.1,0,0,0,14,.44Z"/><path class="cls-4" d="M29.91,36,28,40.5l-7.78-3.22A19.94,19.94,0,0,1,10,27.73h0Z"/><path class="cls-5" d="M28.78,38.68,29.91,36,10,27.73l1,.75a72.39,72.39,0,0,0,11.94,7.35Z"/><path class="cls-6" d="M56.39,34.84H42.55a87.16,87.16,0,0,1-18.36-2l-3.65-.79h0A30.19,30.19,0,0,0,46.82,47.41h9.57Z"/><path class="cls-7" d="M56.39,40.52V34.84H42.55a87.16,87.16,0,0,1-18.36-2l-3.65-.79h0c8.68,5.11,10.59,7.8,28.57,8.23Z"/><path class="cls-2" d="M72.36,45.87l-4.91,0,0,8.42a20,20,0,0,0,4.86,13.14h0Z"/><path class="cls-3" d="M69.41,45.86h3l-.09,21.54L72,66.2a72,72,0,0,1-2.18-13.85Z"/><path class="cls-2" d="M75.08,46.89l-4.85.79L71.58,56a19.92,19.92,0,0,0,7,12.15h0Z"/><path class="cls-3" d="M72.17,47.36l2.91-.47,3.47,21.25L78,67a71.6,71.6,0,0,1-4.43-13.3Z"/><path class="cls-2" d="M79.9,46.4l-4.85.79,1.35,8.32a20,20,0,0,0,7,12.15h0Z"/><path class="cls-3" d="M77,46.88l2.92-.48,3.46,21.26-.5-1.13a71.85,71.85,0,0,1-4.43-13.3Z"/><path class="cls-2" d="M83.09,46.39l-4.68,1.52,2.61,8a19.93,19.93,0,0,0,8.73,11h0Z"/><path class="cls-3" d="M80.28,47.3l2.81-.91,6.66,20.48-.67-1a72.35,72.35,0,0,1-6.41-12.47Z"/><path class="cls-2" d="M87.09,45.75l-4.55,1.86,3.19,7.79a19.88,19.88,0,0,0,9.51,10.28h0Z"/><path class="cls-3" d="M84.35,46.87l2.74-1.12,8.15,19.93-.75-1a72,72,0,0,1-7.3-12Z"/><path class="cls-2" d="M90.47,44.5l-4.29,2.4,4.1,7.35A19.91,19.91,0,0,0,101,63.32h0Z"/><path class="cls-3" d="M87.89,45.94l2.58-1.44L101,63.32l-.86-.89a72,72,0,0,1-8.68-11Z"/><path class="cls-2" d="M93.17,43.62l-3.71,3.23L95,53.2a19.9,19.9,0,0,0,12.32,6.65h0Z"/><path class="cls-3" d="M90.94,45.56l2.23-1.94,14.15,16.23-1-.69a72.79,72.79,0,0,1-10.78-9Z"/><path class="cls-2" d="M96,42.63l-2.87,4,6.83,4.93a20,20,0,0,0,13.51,3.69h0Z"/><path class="cls-3" d="M94.24,45,96,42.63l17.46,12.61-1.16-.45A71.64,71.64,0,0,1,99.74,48.5Z"/><path class="cls-2" d="M98.12,41.69l-1.46,4.69,8,2.52a20,20,0,0,0,14-.78h0Z"/><path class="cls-3" d="M97.24,44.51l.88-2.82,20.56,6.43-1.24,0a72.27,72.27,0,0,1-13.88-2Z"/><path class="cls-2" d="M100.07,39.73l-.47,4.9,8.38.81a20,20,0,0,0,13.53-3.62h0Z"/><path class="cls-3" d="M99.79,42.67l.28-2.94,21.44,2.09-1.23.2a72,72,0,0,1-14,.88Z"/><path class="cls-2" d="M102.32,36.39l.34,4.9,8.4-.58a19.94,19.94,0,0,0,12.74-5.82h0Z"/><path class="cls-3" d="M102.52,39.33l-.2-2.94,21.48-1.5-1.17.4A72,72,0,0,1,109,38.48Z"/><path class="cls-2" d="M101.55,34.32,103.09,39l8-2.64A20,20,0,0,0,122,27.57h0Z"/><path class="cls-3" d="M102.48,37.12l-.93-2.8L122,27.57l-1,.68a72,72,0,0,1-12.45,6.45Z"/><path class="cls-4" d="M73.15,38.64l-4.92,0,0,8.43a19.9,19.9,0,0,0,4.86,13.13h0Z"/><path class="cls-5" d="M70.2,38.62l3,0-.09,21.53L72.75,59a71.22,71.22,0,0,1-2.18-13.85Z"/><path class="cls-4" d="M76.42,39l-4.9.33.56,8.4a20,20,0,0,0,5.78,12.76h0Z"/><path class="cls-5" d="M73.47,39.21l3-.19,1.44,21.49-.39-1.18a71.83,71.83,0,0,1-3.16-13.66Z"/><path class="cls-4" d="M80.3,38.09l-4.89.52L76.3,47a19.93,19.93,0,0,0,6.26,12.53h0Z"/><path class="cls-5" d="M77.36,38.4l2.94-.31,2.26,21.42-.44-1.16a72,72,0,0,1-3.67-13.53Z"/><path class="cls-4" d="M82.76,36.84l-4.81,1,1.77,8.24a20,20,0,0,0,7.55,11.8h0Z"/><path class="cls-5" d="M79.87,37.46l2.89-.62,4.51,21.07-.56-1.11a71.33,71.33,0,0,1-5.08-13.07Z"/><path class="cls-4" d="M85.79,35.1l-4.71,1.43,2.45,8.06A20,20,0,0,0,92,55.72h0Z"/><path class="cls-5" d="M83,36l2.83-.86L92,55.72l-.65-1.06a72.71,72.71,0,0,1-6.15-12.6Z"/><path class="cls-4" d="M87.41,34.87l-4.34,2.29L87,44.61a19.94,19.94,0,0,0,10.47,9.3h0Z"/><path class="cls-5" d="M84.8,36.25l2.61-1.38,10.06,19L96.63,53a71.9,71.9,0,0,1-8.44-11.2Z"/><path class="cls-4" d="M89.56,35.18l-3.78,3.14,5.39,6.48a20,20,0,0,0,12.17,6.94h0Z"/><path class="cls-5" d="M87.29,37.07l2.27-1.89,13.78,16.56-1-.72A71.38,71.38,0,0,1,91.76,41.8Z"/><path class="cls-4" d="M91.81,35.82l-2.92,4,6.77,5a20,20,0,0,0,13.48,3.84h0Z"/><path class="cls-5" d="M90.05,38.19l1.76-2.37,17.33,12.79L108,48.15a72.31,72.31,0,0,1-12.46-6.42Z"/><path class="cls-4" d="M93.31,35.13l-2.17,4.41,7.55,3.72a20,20,0,0,0,13.94,1.39h0Z"/><path class="cls-5" d="M92,37.78l1.31-2.65,19.32,9.52-1.22-.25A72.06,72.06,0,0,1,98,40.29Z"/><path class="cls-4" d="M94.52,34.76l-.63,4.88,8.36,1.08a20,20,0,0,0,13.63-3.2h0Z"/><path class="cls-5" d="M94.14,37.69l.38-2.93,21.36,2.76-1.23.16a72.08,72.08,0,0,1-14,.44Z"/><path class="cls-4" d="M93.89,36l1.88,4.55,7.78-3.22a19.94,19.94,0,0,0,10.25-9.55h0Z"/><path class="cls-5" d="M95,38.68,93.89,36l19.91-8.22-1,.75a72.39,72.39,0,0,1-11.94,7.35Z"/><path class="cls-6" d="M67.41,34.84H81.25a87.25,87.25,0,0,0,18.37-2l3.64-.79h0A30.19,30.19,0,0,1,77,47.41H67.41Z"/><path class="cls-7" d="M67.41,40.52V34.84H81.25a87.25,87.25,0,0,0,18.37-2l3.64-.79h0c-8.67,5.11-10.59,7.8-28.57,8.23Z"/><circle class="cls-8" cx="62.39" cy="8.83" r="8.83" transform="translate(12.03 46.71) rotate(-45)"/><path class="cls-8" d="M67.78,65a5.39,5.39,0,1,1-5.39-5.39A5.39,5.39,0,0,1,67.78,65Z"/><path class="cls-9" d="M50.86,56.2a16.66,16.66,0,0,1-2.14-1.51,10.44,10.44,0,0,1-1.93-2.08l0-.07a1.81,1.81,0,0,1,3-2.06,2.48,2.48,0,0,1,.18.31,7.08,7.08,0,0,0,1,1.65A13,13,0,0,0,52.45,54v0a1.36,1.36,0,0,1-1.6,2.19Z"/><path class="cls-10" d="M53.07,61.2a6.52,6.52,0,0,0,.11-1.39A5.84,5.84,0,0,0,53,58.48a3.91,3.91,0,0,0-.5-1.14,3.48,3.48,0,0,0-.79-.83l0,0a.86.86,0,1,1,1.07-1.34.75.75,0,0,1,.17.19,4.77,4.77,0,0,1,.74,1.5,5.24,5.24,0,0,1,.18,1.56,6.95,6.95,0,0,1-.78,2.8Z"/><path class="cls-11" d="M44.81,51.21c-.08-.13-.12-.21-.17-.3s-.09-.17-.13-.26-.17-.33-.25-.49c-.15-.33-.29-.66-.43-1s-.26-.67-.38-1l-.33-1a22.48,22.48,0,0,1-.84-4.12c-.1-.69-.11-1.39-.15-2.09s0-1.4.08-2.09A21.67,21.67,0,0,1,43,34.78a1.53,1.53,0,0,1,3,.6l0,.11A17.57,17.57,0,0,0,45.74,39c0,.57.1,1.15.15,1.72s.19,1.13.34,1.69a18.32,18.32,0,0,0,1.11,3.25c.12.26.25.51.37.77s.26.5.4.75.28.48.43.71a2.7,2.7,0,0,0,.22.33c0,.06.07.11.1.16l.09.11a2.68,2.68,0,1,1-3.5,3.81Z"/><path class="cls-12" d="M51.63,45.91A1.36,1.36,0,0,1,50.35,45c0-.07-2.35-6.52-5.92-8.64A1.36,1.36,0,0,1,45.82,34c4.41,2.63,7,9.76,7.09,10.07a1.36,1.36,0,0,1-.83,1.73A1.42,1.42,0,0,1,51.63,45.91Z"/><path class="cls-9" d="M72.09,54.25a13.72,13.72,0,0,0,1.3-1.73,7.23,7.23,0,0,0,.83-1.77,1.81,1.81,0,1,1,3.47,1,1.27,1.27,0,0,1-.13.32l0,.09a10.44,10.44,0,0,1-1.64,2.3,15.22,15.22,0,0,1-1.94,1.77A1.35,1.35,0,0,1,72,56a1.37,1.37,0,0,1,0-1.74Z"/><path class="cls-10" d="M72.4,61.48a6.36,6.36,0,0,1-.7-1.25,6.59,6.59,0,0,1-.43-1.43,4.84,4.84,0,0,1,0-1.57,4.94,4.94,0,0,1,.54-1.58.86.86,0,1,1,1.53.78,1.43,1.43,0,0,1-.14.2l0,0a3.19,3.19,0,0,0-.68.93,3.9,3.9,0,0,0-.36,1.2,6,6,0,0,0,0,1.34A6.61,6.61,0,0,0,72.4,61.48Z"/><path class="cls-11" d="M74.85,48.3l.07-.12L75,48l.18-.36c.12-.24.22-.5.33-.76l.3-.79c.09-.27.18-.54.26-.82a17.43,17.43,0,0,0,.69-3.36c.08-.57.08-1.15.12-1.72s0-1.16-.07-1.73a17.47,17.47,0,0,0-.64-3.42l0-.1A1.53,1.53,0,0,1,79,34a21.41,21.41,0,0,1,1.27,3.95c.17.68.24,1.37.35,2.07s.13,1.39.12,2.09a22.68,22.68,0,0,1-.31,4.19c-.06.34-.13.69-.2,1s-.16.69-.25,1-.18.69-.3,1a5.34,5.34,0,0,1-.18.52c0,.09-.06.18-.1.28a3.05,3.05,0,0,1-.13.31l-.49,1.11a2.69,2.69,0,1,1-4-3.32Z"/><path class="cls-12" d="M71.69,46.14a1.43,1.43,0,0,1-.29,0,1.36,1.36,0,0,1-1-1.61c.07-.32,1.7-7.72,5.74-10.89a1.34,1.34,0,0,1,1.9.22,1.36,1.36,0,0,1-.23,1.91C74.51,38.3,73,45,73,45.07A1.36,1.36,0,0,1,71.69,46.14Z"/><circle class="cls-10" cx="62.39" cy="47.46" r="14.14" transform="translate(-15.29 58.02) rotate(-45)"/><path class="cls-9" d="M54.09,65a17.45,17.45,0,0,1-2.76-.7A11.33,11.33,0,0,1,48.59,63l-.05,0a1.81,1.81,0,0,1,2-3l.25.2a8,8,0,0,0,1.76,1.27,14.37,14.37,0,0,0,2.18,1h0A1.36,1.36,0,0,1,54.09,65Z"/><path class="cls-10" d="M58.28,69.35a7.21,7.21,0,0,0-1.11-2.76,4.26,4.26,0,0,0-1-1,3.78,3.78,0,0,0-1.14-.56h0a.86.86,0,0,1,.55-1.63l.2.1a5.19,5.19,0,0,1,1.34,1.21,5.42,5.42,0,0,1,.81,1.49,7.3,7.3,0,0,1,.35,3.14Z"/><path class="cls-13" d="M46.06,62.29l-.29-.23-.23-.2c-.16-.14-.31-.27-.45-.41-.29-.27-.55-.54-.82-.82s-.53-.56-.78-.85-.49-.58-.73-.88a24.37,24.37,0,0,1-2.49-3.8,22.63,22.63,0,0,1-1-2.05c-.27-.71-.56-1.4-.76-2.13a24,24,0,0,1-.87-4.42,1.53,1.53,0,0,1,3-.53l0,.1a19.55,19.55,0,0,0,1.16,3.64c.23.59.56,1.15.84,1.71l.49.81a9,9,0,0,0,.52.79,19.35,19.35,0,0,0,2.43,2.9c.22.23.45.44.68.65s.46.42.7.62l.72.56.36.26.18.12.13.08a2.56,2.56,0,1,1-1.58,4.86,2.73,2.73,0,0,1-.74-.38Z"/><path class="cls-9" d="M50.21,54.36a1.36,1.36,0,0,1-1-.47c-.08-.09-5-5.72-9.51-6.47a1.36,1.36,0,0,1,.44-2.68c5.48.91,10.9,7.11,11.12,7.37A1.37,1.37,0,0,1,51.1,54,1.38,1.38,0,0,1,50.21,54.36Z"/><path class="cls-9" d="M69.87,62A14.13,14.13,0,0,0,72,61a8.09,8.09,0,0,0,1.7-1.35,1.8,1.8,0,1,1,2.65,2.45,1.51,1.51,0,0,1-.23.21l-.06.05a11.54,11.54,0,0,1-2.67,1.47,17.53,17.53,0,0,1-2.71.83A1.36,1.36,0,0,1,69.86,62Z"/><path class="cls-10" d="M66.7,69.15A7.46,7.46,0,0,1,66.9,66a5.42,5.42,0,0,1,.73-1.54,5.33,5.33,0,0,1,1.28-1.27.86.86,0,0,1,1,1.38.78.78,0,0,1-.2.11h0a3.88,3.88,0,0,0-1.12.62,4.5,4.5,0,0,0-.9,1,6,6,0,0,0-.63,1.33A7.26,7.26,0,0,0,66.7,69.15Z"/><path class="cls-13" d="M75.51,57.55a.5.5,0,0,0,.13-.09l.17-.12.35-.28.69-.6.67-.65c.22-.22.44-.45.65-.68a19.71,19.71,0,0,0,2.27-3,8.21,8.21,0,0,0,.48-.81c.15-.28.31-.56.45-.84.26-.58.55-1.15.75-1.75a19.31,19.31,0,0,0,1-3.69l0-.11a1.53,1.53,0,0,1,3,.39,23.31,23.31,0,0,1-.65,4.45c-.16.74-.42,1.45-.65,2.17A22.45,22.45,0,0,1,84,54a24.09,24.09,0,0,1-2.3,3.92c-.22.31-.46.61-.68.92s-.49.6-.74.89-.51.58-.78.86l-.42.43-.23.21-.27.24-.5.42A2.56,2.56,0,0,1,74.78,58,2.86,2.86,0,0,1,75.51,57.55Z"/><path class="cls-9" d="M73.87,53.77a1.39,1.39,0,0,1-.76-.28,1.36,1.36,0,0,1-.23-1.91c.21-.27,5.31-6.74,10.74-7.92a1.36,1.36,0,1,1,.57,2.65c-3.72.81-7.88,5.29-9.18,6.94A1.36,1.36,0,0,1,73.87,53.77Z"/><path class="cls-13" d="M54.64,35.2h-.17A17.24,17.24,0,0,1,47,32.45,1.53,1.53,0,0,1,48.78,30a14.2,14.2,0,0,0,6,2.19,1.53,1.53,0,0,1-.16,3.05Z"/><path class="cls-9" d="M50.79,11a.37.37,0,0,0-.39-.33.37.37,0,0,0-.35.39,7.43,7.43,0,0,1-1.12,4.15,9.19,9.19,0,0,1-.63.87c-.24.28-.48.5-.77.8s-.69.72-1,1.11a5.39,5.39,0,0,0-.21-1.2,3.67,3.67,0,0,0-.43-.92,2.64,2.64,0,0,0-.73-.77.38.38,0,0,0-.48.05.37.37,0,0,0,0,.52l.06.06a2.42,2.42,0,0,1,.63,1.3,4.38,4.38,0,0,1,0,1.57,7.55,7.55,0,0,1-.19.79c-.1.26-.18.52-.28.77l-.22.48c-.18.31-.35.64-.5,1l0,.05v0a.36.36,0,0,0,0,.09v0c-.1.22-.18.44-.27.66a4.28,4.28,0,0,0-.94-1,3.24,3.24,0,0,0-1.58-.61.38.38,0,0,0-.38.27.37.37,0,0,0,.24.46l.07,0a2.44,2.44,0,0,1,1,.64,3.2,3.2,0,0,1,.63,1.05,5,5,0,0,1,.31,1.23l0,.52a7.46,7.46,0,0,0,.09,2L43,27.08a4.36,4.36,0,0,0-1.65-.14,3.19,3.19,0,0,0-1.57.61.37.37,0,0,0-.11.46.37.37,0,0,0,.49.17l.07,0A2.45,2.45,0,0,1,41.4,28a3,3,0,0,1,1.17.35,4.87,4.87,0,0,1,1.06.7l.47.44.08.08A7.07,7.07,0,0,0,47.26,32h0a1,1,0,0,0,.48.12,1.18,1.18,0,0,0,1.12-1.23,1.23,1.23,0,0,0-.72-1.15h0a4.37,4.37,0,0,1-2.69-2.37,6.13,6.13,0,0,1-.17-3.92,12.55,12.55,0,0,1,1.81-3.94,17.83,17.83,0,0,1,1.36-1.78c.22-.27.53-.6.76-.93a8.81,8.81,0,0,0,.66-1.05A8.38,8.38,0,0,0,50.79,11Z"/><path class="cls-13" d="M70.15,35.2A1.53,1.53,0,0,1,70,32.15,14,14,0,0,0,76,30a1.53,1.53,0,0,1,1.78,2.49,17.24,17.24,0,0,1-7.47,2.74Z"/><path class="cls-9" d="M74,11a.36.36,0,0,1,.38-.33.37.37,0,0,1,.36.39,7.42,7.42,0,0,0,1.11,4.15,7.79,7.79,0,0,0,.64.87c.24.28.47.5.76.8a13.41,13.41,0,0,1,1,1.11,4.88,4.88,0,0,1,.22-1.2,4,4,0,0,1,.42-.92,2.78,2.78,0,0,1,.73-.77.38.38,0,0,1,.48.05.37.37,0,0,1,0,.52l0,.06a2.35,2.35,0,0,0-.63,1.3,4.37,4.37,0,0,0,0,1.57c0,.26.14.53.2.79s.17.52.28.77.14.32.22.48.34.64.5,1l0,.05,0,0,0,.09v0q.15.33.27.66a4.55,4.55,0,0,1,.95-1,3.2,3.2,0,0,1,1.57-.61.39.39,0,0,1,.39.27.37.37,0,0,1-.25.46l-.07,0a2.35,2.35,0,0,0-1,.64A3.22,3.22,0,0,0,82,23.35a5.54,5.54,0,0,0-.31,1.23l0,.52a7.87,7.87,0,0,1-.08,2l.22-.07a4.36,4.36,0,0,1,1.65-.14,3.23,3.23,0,0,1,1.58.61.38.38,0,0,1,.1.46.36.36,0,0,1-.49.17l-.06,0A2.45,2.45,0,0,0,83.39,28a3.1,3.1,0,0,0-1.18.35,4.81,4.81,0,0,0-1,.7l-.48.44-.07.08A7.13,7.13,0,0,1,77.53,32h0a1,1,0,0,1-.49.12,1.18,1.18,0,0,1-1.11-1.23,1.23,1.23,0,0,1,.72-1.15h0a4.39,4.39,0,0,0,2.7-2.37,6.2,6.2,0,0,0,.17-3.92,12.81,12.81,0,0,0-1.82-3.94,16.34,16.34,0,0,0-1.35-1.78c-.23-.27-.53-.6-.77-.93a8.81,8.81,0,0,1-.66-1.05A8.29,8.29,0,0,1,74,11Z"/><path class="cls-9" d="M63.7,15.64a5.22,5.22,0,0,1-2.17,2.12,4.87,4.87,0,0,1-.71.3c-.24.09-.52.15-.73.21a11.64,11.64,0,0,0-1.34.43,8,8,0,0,0-2.34,1.39,3.84,3.84,0,0,0-1.32,2.08,2.81,2.81,0,0,0,.54,2.19,5.51,5.51,0,0,0,2,1.54,11,11,0,0,0,5.18,1h0a1.08,1.08,0,1,1,.07,2.16h-.08a13,13,0,0,1-6-1.64,7.12,7.12,0,0,1-2.39-2.22,4.2,4.2,0,0,1-.56-3.35,5.1,5.1,0,0,1,1.9-2.63,9,9,0,0,1,2.75-1.37,12.44,12.44,0,0,1,1.46-.36c.26-.05.46-.08.68-.14a4.83,4.83,0,0,0,.64-.22A4.58,4.58,0,0,0,63.3,15.4a.23.23,0,0,1,.32-.07A.23.23,0,0,1,63.7,15.64Z"/><path class="cls-9" d="M59.32,15.73a1.59,1.59,0,0,1,.1.66,2.17,2.17,0,0,1-.1.62,3.43,3.43,0,0,1-.59,1.08,5.9,5.9,0,0,1-.39.46c-.15.13-.29.28-.44.4-.31.26-.63.48-.95.7a.52.52,0,0,1-.72-.14.53.53,0,0,1,.14-.73l.05,0h0a9,9,0,0,0,.92-.5l.42-.3c.13-.12.27-.22.38-.34a2.38,2.38,0,0,0,.58-.8,1.54,1.54,0,0,0,.15-.9v0a.22.22,0,0,1,.18-.27A.22.22,0,0,1,59.32,15.73Z"/><path class="cls-9" d="M55.24,17.33a1.93,1.93,0,0,1,.6.88,2.57,2.57,0,0,1,.14,1,3.68,3.68,0,0,1-.17,1l-.16.48-.2.45a.58.58,0,0,1-1.07-.47.41.41,0,0,1,0-.09l0,0,.24-.34.2-.36a3,3,0,0,0,.28-.74,2,2,0,0,0,0-.77,1.43,1.43,0,0,0-.28-.68l0,0a.23.23,0,0,1,.33-.32Z"/><path class="cls-9" d="M61.08,15.64a5.28,5.28,0,0,0,2.17,2.12,4.55,4.55,0,0,0,.72.3c.24.09.51.15.73.21A12.13,12.13,0,0,1,66,18.7a8,8,0,0,1,2.35,1.39,3.9,3.9,0,0,1,1.32,2.08,2.77,2.77,0,0,1-.55,2.19,5.42,5.42,0,0,1-2,1.54,11,11,0,0,1-5.18,1h0a1.08,1.08,0,1,0-.07,2.16H62a12.9,12.9,0,0,0,6-1.64,7.15,7.15,0,0,0,2.4-2.22A4.2,4.2,0,0,0,71,21.86a5,5,0,0,0-1.9-2.63,9,9,0,0,0-2.74-1.37,12.12,12.12,0,0,0-1.47-.36c-.25-.05-.45-.08-.68-.14a4.7,4.7,0,0,1-.63-.22,4.6,4.6,0,0,1-2.07-1.74.23.23,0,0,0-.32-.07A.24.24,0,0,0,61.08,15.64Z"/><path class="cls-9" d="M65.46,15.73a1.77,1.77,0,0,0-.1.66,2.6,2.6,0,0,0,.11.62,3.22,3.22,0,0,0,.58,1.08,6,6,0,0,0,.4.46c.14.13.29.28.44.4a9.29,9.29,0,0,0,1,.7.52.52,0,0,0,.72-.14.54.54,0,0,0-.14-.73l-.06,0h0c-.31-.15-.62-.32-.92-.5l-.42-.3c-.12-.12-.27-.22-.38-.34a2.69,2.69,0,0,1-.58-.8,1.53,1.53,0,0,1-.14-.9v0a.24.24,0,0,0-.45-.13Z"/><path class="cls-9" d="M69.54,17.33a1.91,1.91,0,0,0-.59.88,2.77,2.77,0,0,0-.15,1,4.65,4.65,0,0,0,.17,1l.17.48.2.45a.58.58,0,0,0,.77.3.59.59,0,0,0,.3-.77l-.06-.09,0,0-.23-.34-.21-.36a3.51,3.51,0,0,1-.28-.74,2,2,0,0,1,0-.77,1.52,1.52,0,0,1,.27-.68l0,0a.23.23,0,0,0-.33-.32Z"/><path class="cls-9" d="M62.39,60.07c0,.31.38.57.84.57h0a15,15,0,0,0,0-30h0c-.46,0-.84.26-.84.58Z"/><path class="cls-7" d="M73.85,41.35a1.91,1.91,0,1,1-1.91-1.91A1.92,1.92,0,0,1,73.85,41.35Z"/><path class="cls-14" d="M62.39,31.2c0-.32-.37-.58-.84-.58h0a15,15,0,0,0,0,30h0c.47,0,.84-.26.84-.57Z"/><rect class="cls-15" x="58.54" y="40.17" width="2.88" height="10.92" rx="1.34" ry="1.34"/><path class="cls-12" d="M62.39,60.24a.18.18,0,0,1-.17-.17V31.2a.17.17,0,0,1,.17-.17.16.16,0,0,1,.17.17V60.07A.17.17,0,0,1,62.39,60.24Z"/><path class="cls-7" d="M68,24.33c0,2.4-2.51,4.34-5.6,4.34s-5.59-1.94-5.59-4.34S59.3,20,62.39,20,68,21.94,68,24.33Z"/><ellipse class="cls-6" cx="62.39" cy="31.64" rx="11.7" ry="7.8"/><path class="cls-7" d="M68.63,28.67a2,2,0,1,1-2-2A2,2,0,0,1,68.63,28.67Z"/><path class="cls-9" d="M59.29,22.9c-.7.83-1.65,1.17-2.12.77s-.3-1.39.4-2.21,1.64-1.17,2.12-.77S60,22.08,59.29,22.9Z"/><circle class="cls-7" cx="59.29" cy="21.46" r="0.34"/><path class="cls-9" d="M65.5,22.9c.69.83,1.64,1.17,2.11.77s.3-1.39-.39-2.21-1.65-1.17-2.12-.77S64.8,22.08,65.5,22.9Z"/><path class="cls-7" d="M65.15,21.46a.34.34,0,0,0,.68,0,.34.34,0,1,0-.68,0Z"/><path class="cls-16" d="M66.81,4.4A1.45,1.45,0,1,1,65.36,3,1.45,1.45,0,0,1,66.81,4.4Z"/><circle class="cls-16" cx="65.15" cy="63.95" r="1.2"/></g></g></svg>